<svg width="49" height="49" viewBox="0 0 49 49" fill="none" xmlns="http://www.w3.org/2000/svg">
<circle cx="24.5" cy="24.5" r="24.5" fill="white"/>
<path fill-rule="evenodd" clip-rule="evenodd" d="M21.8969 12.936C20.8374 11.7583 19.3431 10.9794 17.6667 10.8519V8.27087H15.9584V10.9506C14.1663 11.2997 12.6439 12.4029 11.7349 13.9166L9.5521 12.6563L8.69794 14.1358L11.0582 15.4985C10.9116 16.0336 10.8334 16.5969 10.8334 17.1786C10.8334 18.8999 11.0405 20.5727 11.4314 22.1735L8.90392 22.8507L9.34607 24.5009L11.9043 23.8154C12.6465 26.0439 13.7523 28.1062 15.1512 29.9319L12.7919 32.2912L13.9999 33.4992L16.249 31.2501C17.5728 32.7142 19.1002 33.9907 20.7865 35.0351L19.4894 37.2817L20.9689 38.1359L22.2744 35.8746C24.5204 37.0238 27.0009 37.7803 29.625 38.0532V40.7292H31.3334V38.1612C31.4956 38.1648 31.6583 38.1667 31.8214 38.1667C33.7837 38.1667 35.538 37.276 36.7019 35.8768L38.9902 37.1979L39.8444 35.7185L37.6085 34.4276C37.9671 33.6325 38.1667 32.7503 38.1667 31.8214C38.1667 29.4882 36.9073 27.4491 35.0312 26.3467L36.344 24.073L34.8645 23.2188L33.4408 25.6848C32.9238 25.5487 32.3811 25.4763 31.8214 25.4763C29.8378 25.4763 28.0167 24.7801 26.5891 23.619L28.5207 21.6874L27.3126 20.4795L25.3812 22.4109C24.2199 20.9833 23.5238 19.1623 23.5238 17.1786C23.5238 16.1726 23.2897 15.2212 22.8729 14.376L24.9573 12.2916L23.7494 11.0836L21.8969 12.936ZM16.8125 16.8125C16.3408 16.8125 15.9584 17.195 15.9584 17.6667C15.9584 18.1385 16.3408 18.5209 16.8125 18.5209C17.2843 18.5209 17.6667 18.1385 17.6667 17.6667C17.6667 17.195 17.2843 16.8125 16.8125 16.8125ZM14.25 17.6667C14.25 16.2514 15.3973 15.1042 16.8125 15.1042C18.2278 15.1042 19.375 16.2514 19.375 17.6667C19.375 19.082 18.2278 20.2292 16.8125 20.2292C15.3973 20.2292 14.25 19.082 14.25 17.6667ZM24.5 28.7709C24.0283 28.7709 23.6459 29.1533 23.6459 29.625C23.6459 30.0968 24.0283 30.4792 24.5 30.4792C24.9718 30.4792 25.3542 30.0968 25.3542 29.625C25.3542 29.1533 24.9718 28.7709 24.5 28.7709ZM21.9375 29.625C21.9375 28.2098 23.0848 27.0625 24.5 27.0625C25.9153 27.0625 27.0625 28.2098 27.0625 29.625C27.0625 31.0403 25.9153 32.1875 24.5 32.1875C23.0848 32.1875 21.9375 31.0403 21.9375 29.625ZM18.5209 26.2084C19.4644 26.2084 20.2292 25.4436 20.2292 24.5C20.2292 23.5565 19.4644 22.7917 18.5209 22.7917C17.5773 22.7917 16.8125 23.5565 16.8125 24.5C16.8125 25.4436 17.5773 26.2084 18.5209 26.2084ZM33.0417 31.3334C33.0417 32.2769 32.2769 33.0417 31.3334 33.0417C30.3898 33.0417 29.625 32.2769 29.625 31.3334C29.625 30.3899 30.3898 29.625 31.3334 29.625C32.2769 29.625 33.0417 30.3899 33.0417 31.3334Z" fill="#3D8D7A"/>
</svg>
