<svg width="34" height="34" viewBox="0 0 34 34" fill="none" xmlns="http://www.w3.org/2000/svg">
<path fill-rule="evenodd" clip-rule="evenodd" d="M30.8295 13.3675C30.8053 15.0059 30.7839 16.4488 31.6074 18.1554C31.6074 18.1554 34.0418 20.3455 33.7208 22.1026C33.3998 23.8598 30.2297 24.3436 30.2297 24.3436C30.2297 31.4431 23.4502 30.9911 20.0663 30.3234C19.9979 30.3099 19.9308 30.2963 19.8652 30.2827C18.8527 30.0724 18.1913 29.8554 18.1913 29.8554V31.1896C18.1913 31.1896 18.1208 31.4131 17.9034 31.7277C17.8457 31.8113 17.7775 31.9013 17.6976 31.9953C17.0627 32.7413 15.6833 33.7361 12.8409 33.7361C10.6995 33.9057 7.03416 32.504 6.06253 30.5274V24.4823C2.63832 21.923 0 18.4752 0 14.006C0 10.2914 1.55017 6.72891 4.3095 4.10232C7.06884 1.47565 10.8112 1.25029e-05 14.7136 1.25029e-05C17.6935 -0.00320312 20.6381 0.613887 23.341 1.80807C25.4712 2.66195 27.3362 4.02085 28.7584 5.75522C30.057 7.57716 30.7768 9.71672 30.8317 11.9179C30.8435 12.4237 30.8363 12.9036 30.8295 13.3675ZM20.1089 14.8878C19.9627 15.0513 19.8865 15.1366 19.4277 15.1366C18.7031 15.1366 17.9953 14.9239 17.3968 14.5263C16.9766 14.9596 16.4614 15.2953 15.8896 15.5082C15.8168 15.5432 15.7498 15.5803 15.6877 15.6198C15.3634 15.8255 15.1715 16.0912 14.9751 16.4043C14.9417 16.4576 14.9081 16.5123 14.8737 16.5683C14.8246 16.6483 14.7736 16.7315 14.7192 16.8167C14.3603 17.3791 14.1704 18.0282 14.1712 18.6903V22.4192H10.3125C10.2154 21.6203 10.0329 20.8528 9.59081 20.1731C9.14878 19.4933 8.55572 18.9187 7.85531 18.4914C7.24744 18.2371 6.72263 17.8259 6.33759 17.3023C5.95266 16.7787 5.72213 16.1626 5.67112 15.5207C5.03841 14.8688 4.68638 14.0059 4.68759 13.1093C4.68272 12.3362 4.94344 11.5837 5.42841 10.9714C5.33916 10.6684 5.29613 10.3542 5.30072 10.0391C5.2995 9.28538 5.54709 8.55122 6.00694 7.94475L7.85531 6.6706C8.13891 6.05016 8.60091 5.52282 9.18572 5.15222C9.77044 4.78172 10.4529 4.58382 11.1507 4.58241C11.439 4.5841 11.7261 4.61747 12.0066 4.68178C12.6002 4.14357 13.3627 3.81535 14.1712 3.75L18.0984 4.01616C18.9651 4.22466 19.7227 4.73588 20.2274 5.4525H20.4829L22.7518 6.22519C23.3954 6.72713 23.8433 7.42819 24.021 8.21194C24.7996 8.54091 25.4386 9.1201 25.8308 9.85275C26.2231 10.5853 26.3449 11.4268 26.1757 12.2363C26.0067 13.0458 25.5571 13.7743 24.9021 14.2998L22.5776 15.1229C21.8459 15.1312 21.1288 14.9231 20.5211 14.5263C20.3017 14.6721 20.1936 14.7931 20.1089 14.8878ZM26.25 18.2813C26.25 19.0579 25.6204 19.6875 24.8438 19.6875C24.0671 19.6875 23.4375 19.0579 23.4375 18.2813C23.4375 17.5046 24.0671 16.875 24.8438 16.875C25.6204 16.875 26.25 17.5046 26.25 18.2813ZM14.0625 24.375V26.25H10.3125V24.375H14.0625ZM10.3125 28.125V30H14.0625V28.125H10.3125Z" fill="#3D8D7A"/>
</svg>
