<svg width="42" height="42" viewBox="0 0 42 42" fill="none" xmlns="http://www.w3.org/2000/svg">
<path d="M21 10.5365C21 7.61683 18.6332 5.25 15.7135 5.25H10.5365C7.61683 5.25 5.25 7.61683 5.25 10.5365C5.25 13.4561 7.61683 15.8229 10.5365 15.8229H11.55V18.375C11.55 18.375 21 17.099 21 10.5365Z" fill="#3D8D7A"/>
<path d="M16.1875 24.5C16.1875 26.4338 14.6213 28 12.6875 28C10.7537 28 9.1875 26.4338 9.1875 24.5C9.1875 22.5662 10.7537 21 12.6875 21C14.6213 21 16.1875 22.5662 16.1875 24.5Z" fill="#3D8D7A"/>
<path d="M12.6875 29.75C10.2052 29.75 5.25 31.0006 5.25 33.4834V36.75H20.125V33.4834C20.125 31.0006 15.1698 29.75 12.6875 29.75Z" fill="#3D8D7A"/>
<path d="M29.3125 28C31.2463 28 32.8125 26.4338 32.8125 24.5C32.8125 22.5662 31.2463 21 29.3125 21C27.3787 21 25.8125 22.5662 25.8125 24.5C25.8125 26.4338 27.3787 28 29.3125 28Z" fill="#3D8D7A"/>
<path d="M29.3125 29.75C26.8302 29.75 21.875 31.0006 21.875 33.4834V36.75H36.75V33.4834C36.75 31.0006 31.7948 29.75 29.3125 29.75Z" fill="#3D8D7A"/>
<path d="M28.0365 6.125C25.1168 6.125 22.75 8.49183 22.75 11.4115C22.75 17.974 31.15 19.25 31.15 19.25V16.6979H31.4635C34.3832 16.6979 36.75 14.3311 36.75 11.4115C36.75 8.49183 34.3832 6.125 31.4635 6.125H28.0365Z" fill="#3D8D7A"/>
</svg>
