<svg width="58" height="83" viewBox="0 0 58 83" fill="none" xmlns="http://www.w3.org/2000/svg">
<path fill-rule="evenodd" clip-rule="evenodd" d="M29 18.675C34.1479 18.675 38.3211 14.4945 38.3211 9.33748C38.3211 4.18054 34.1479 0 29 0C23.852 0 19.6789 4.18054 19.6789 9.33748C19.6789 14.4945 23.852 18.675 29 18.675ZM57.8334 23.7388C58.4737 25.9391 57.212 28.243 55.0153 28.8841C50.095 30.3207 45.6493 31.4024 41.4281 32.1234V56.0133V56.0249V78.8498C41.4281 81.0686 39.6859 82.895 37.4731 82.9957C35.2604 83.0961 33.3602 81.4353 33.1597 79.2256L31.0883 56.4007C31.0769 56.2751 31.0713 56.1498 31.0713 56.0249H26.9286C26.9286 56.1498 26.923 56.2751 26.9116 56.4007L24.8403 79.2256C24.6398 81.4353 22.7395 83.0961 20.5269 82.9957C18.3143 82.895 16.5719 81.0686 16.5719 78.8498V32.0469C12.3616 31.3196 7.93185 30.2597 3.0362 28.8989C0.831457 28.2861 -0.459823 25.9989 0.151847 23.7904C0.763724 21.5818 3.04677 20.2883 5.25152 20.901C14.7969 23.5543 21.9694 24.8678 29.018 24.8993C36.0523 24.9309 43.2068 23.6865 52.6971 20.9157C54.8937 20.2744 57.1934 21.5382 57.8334 23.7388Z" fill="#FBFFE4"/>
</svg>
