<svg width="49" height="49" viewBox="0 0 49 49" fill="none" xmlns="http://www.w3.org/2000/svg">
<circle cx="24.5" cy="24.5" r="24.5" fill="white"/>
<path fill-rule="evenodd" clip-rule="evenodd" d="M22.0858 10.8946C17.9292 8.55512 14.2467 9.6552 11.1859 13.3713C8.23179 16.9579 10.2459 23.4229 11.6938 28.0704C12.039 29.1785 12.3521 30.1833 12.5578 31.0211C13.6268 35.3727 14.6496 38.0843 16.9817 40.0468C18.1367 41.0185 19.4462 39.3485 20.8279 37.5865C22.0258 36.0589 23.2778 34.4623 24.5302 34.4584C25.7622 34.4547 26.9944 36.0489 28.1757 37.577C29.5392 39.341 30.8349 41.0171 31.9837 40.0468C33.765 38.5423 34.574 37.4385 35.5527 34.3389C36.6201 30.9588 38.3436 26.9166 39.7138 22.2572C40.6779 18.9788 40.7934 15.6414 38.0149 12.4196C34.048 7.82006 28.5496 10.1958 25.9901 11.7171L29.457 14.6891C29.8588 15.0335 29.9054 15.6385 29.5609 16.0403C29.2164 16.4421 28.6114 16.4887 28.2096 16.1442L22.0858 10.8946Z" fill="#3D8D7A"/>
</svg>
