<svg width="49" height="49" viewBox="0 0 49 49" fill="none" xmlns="http://www.w3.org/2000/svg">
<circle cx="24.5" cy="24.5" r="24.5" fill="white"/>
<path d="M29.3958 8.83329C29.3958 10.9964 27.6422 12.75 25.4792 12.75C23.3161 12.75 21.5625 10.9964 21.5625 8.83329C21.5625 6.67018 23.3161 4.91663 25.4792 4.91663C27.6422 4.91663 29.3958 6.67018 29.3958 8.83329Z" fill="#3D8D7A"/>
<path fill-rule="evenodd" clip-rule="evenodd" d="M22.2002 27.8976C21.9162 27.8475 21.6388 27.7336 21.3898 27.5526L16.0044 23.6359C15.1678 23.0275 14.9486 21.8734 15.504 21.0007L17.1561 22.0521C15.504 21.0007 15.5041 21.0006 15.5042 21.0004L15.5046 20.9999L15.5055 20.9985L15.5081 20.9943L15.5171 20.9801L15.5496 20.9296C15.5775 20.8864 15.6177 20.8246 15.6687 20.7467C15.7708 20.5911 15.9169 20.3709 16.0966 20.1075C16.4541 19.5831 16.952 18.8759 17.5037 18.162C18.0466 17.4594 18.6819 16.6974 19.3137 16.093C19.6279 15.7925 19.989 15.4845 20.3778 15.2402C20.7255 15.0215 21.32 14.7084 22.052 14.7084H22.0606H22.0692H22.0777H22.0862H22.0948H22.1032H22.1117H22.1201H22.1285H22.137H22.1453H22.1536H22.162H22.1703H22.1786H22.1868H22.195H22.2033H22.2115H22.2197H22.2278H22.236H22.2441H22.2521H22.2602H22.2683H22.2763H22.2842H22.2923H22.3002H22.3081H22.3161H22.3239H22.3318H22.3397H22.3475H22.3552H22.3631H22.3708H22.3785H22.3863H22.3939H22.4016H22.4093H22.4169H22.4246H22.4321H22.4396H22.4472H22.4547H22.4622H22.4697H22.4771H22.4846H22.492H22.4995H22.5068H22.5141H22.5215H22.5288H22.5361H22.5433H22.5506H22.5578H22.5651H22.5722H22.5794H22.5865H22.5937H22.6008H22.6079H22.6149H22.622H22.629H22.636H22.6429H22.6499H22.6568H22.6638H22.6706H22.6775H22.6843H22.6912H22.698H22.7048H22.7115H22.7183H22.7251H22.7317H22.7385H22.7451H22.7518H22.7583H22.765H22.7716H22.7781H22.7847H22.7912H22.7977H22.8042H22.8106H22.8171H22.8236H22.8299H22.8363H22.8427H22.849H22.8553H22.8616H22.8679H22.8742H22.8805H22.8866H22.8929H22.8991H22.9052H22.9113H22.9175H22.9235H22.9296H22.9357H22.9417H22.9478H22.9538H22.9598H22.9657H22.9717H22.9776H22.9836H22.9894H22.9953H23.0011H23.007H23.0127H23.0185H23.0243H23.0301H23.0358H23.0415H23.0472H23.0529H23.0586H23.0641H23.0698H23.0754H23.081H23.0865H23.092H23.0975H23.1031H23.1086H23.114H23.1195H23.1249H23.1303H23.1357H23.141H23.1464H23.1517H23.1571H23.1624H23.1675H23.1728H23.1781H23.1833H23.1885H23.1937H23.1988H23.204H23.2091H23.2142H23.2192H23.2243H23.2294H23.2344H23.2394H23.2444H23.2494H23.2543H23.2593H23.2642H23.2691H23.274H23.2789H23.2837H23.2885H23.2933H23.2981H23.3029H23.3077H23.3124H23.3171H23.3218H23.3265H23.3311H23.3358H23.3404H23.345H23.3496H23.3542H23.3587H23.3633H23.3678H23.3723H23.3767H23.3812H23.3856H23.3901H23.3945H23.3988H23.4032H23.4076H23.4119H23.4163H23.4206H23.4249H23.4291H23.4334H23.4376H23.4418H23.446H23.4501H23.4543H23.4585H23.4626H23.4667H23.4708H23.4749H23.4789H23.4829H23.4869H23.491H23.495H23.499H23.5029H23.5068H23.5107H23.5147H23.5186H23.5224H23.5262H23.5301H23.5339H23.5377H23.5415H23.5452H23.549H23.5527H23.5565H23.5601H23.5638H23.5674H23.5712H23.5748H23.5783H23.5819H23.5855H23.5891H23.5926H23.5961H23.5996H23.6032H23.6066H23.6101H23.6136H23.617H23.6204H23.6237H23.6272H23.6305H23.6338H23.6371H23.6405H23.6438H23.647H23.6504H23.6536H23.6568H23.6601H23.6632H23.6664H23.6696H23.6727H23.6758H23.679H23.6821H23.6851H23.6882H23.6913H23.6943H23.6973H23.7003H23.7033H23.7063H23.7092H23.7122H23.7151H23.718H23.7209H23.7238H23.7266H23.7295H23.7323H23.7351H23.7379H23.7406H23.7435H23.7462H23.749H23.7516H23.7544H23.757H23.7597H23.7624H23.765H23.7677H23.7702H23.7729H23.7754H23.778H23.7805H23.783H23.7856H23.788H23.7906H23.793H23.7955H23.7979H23.8004H23.8027H23.8052H23.8075H23.8099H23.8122H23.8146H23.8169H23.8192H23.8215H23.8238H23.826H23.8283H23.8304H23.8327H23.8349H23.8371H23.8392H23.8414H23.8436H23.8457H23.8478H23.8499H23.852H23.854H23.8561H23.8581H23.8601H23.8622H23.8641H23.8661H23.868H23.87H23.872H23.8739H23.8758H23.8776H23.8796H23.8815H23.8832H23.8851H23.8869H23.8887H23.8905H23.8923H23.8941H23.8957H23.8975H23.8993H23.9009H23.9026H23.9044H23.9059H23.9076H23.9093H23.9109H23.9125H23.9141H23.9156H23.9172H23.9188H23.9203H23.9218H23.9234H23.9248H23.9263H23.9278H23.9292H23.9307H23.9321H23.9335H23.9349H23.9363H23.9377H23.939H23.9404H23.9417H23.943H23.9443H23.9456H23.9469H23.9481H23.9494H23.9507H23.9519H23.9531H23.9543H23.9555H23.9567H23.9578H23.9589H23.9601H23.9612H23.9623H23.9634H23.9645H23.9656H23.9665H23.9676H23.9686H23.9697H23.9707H23.9716H23.9726H23.9736H23.9745H23.9755H23.9763H23.9773H23.9782H23.9791H23.98H23.9807H23.9816H23.9825H23.9833H23.9841H23.9849H23.9856H23.9864H23.9872H23.9879H23.9887H23.9894H23.99H23.9907H23.9914H23.9921H23.9928H23.9934H23.9941H23.9946H23.9952H23.9958H23.9964H23.997H23.9976H23.9981H23.9987H23.9991H23.9996H24.0001H24.0006H24.0011H24.0016H24.0021H24.0025H24.0029H24.0034H24.0038H24.0041H24.0044H24.0048H24.0052H24.0055H24.0059H24.0062H24.0065H24.0068H24.0071H24.0073H24.0076H24.0079H24.0081H24.0083H24.0084H24.0086H24.0088H24.009H24.0092H24.0093H24.0095H24.0096H24.0097H24.0099H24.01H24.0101H24.0102H24.0103C24.4242 14.7084 24.8274 14.8395 25.1622 15.0829L24.0103 16.6667C25.1622 15.0829 25.1625 15.0832 25.1629 15.0835L25.1637 15.0841L25.1657 15.0855L25.1713 15.0897L25.1883 15.1021L25.2447 15.1441C25.2922 15.1795 25.3588 15.23 25.4424 15.2945C25.6096 15.4236 25.8453 15.6098 26.1319 15.8472C26.7039 16.3212 27.4852 17.0049 28.3325 17.8523C29.9972 19.5169 32.0486 21.9426 33.1724 24.7519C33.8232 26.3792 33.8394 27.9054 33.317 29.2489C32.8147 30.5403 31.8951 31.4572 31.0372 32.0812C30.1748 32.7084 29.2672 33.1188 28.6048 33.3694C28.3288 33.4738 28.0849 33.5544 27.89 33.614L26.4582 41.1459V42.125C26.4582 43.2066 25.5815 44.0834 24.4999 44.0834C23.4183 44.0834 22.5416 43.2066 22.5416 42.125V41.1459C22.5416 35.4128 22.5386 31.6898 22.2002 27.8976ZM21.5556 22.8303C21.4103 21.9339 21.2435 20.9945 21.0521 19.9923C20.9037 20.1729 20.7533 20.3622 20.6029 20.5568C20.3331 20.9061 20.0747 21.2574 19.8418 21.5838L21.5556 22.8303Z" fill="#3D8D7A"/>
</svg>
