<svg width="49" height="49" viewBox="0 0 49 49" fill="none" xmlns="http://www.w3.org/2000/svg">
<circle cx="24.5" cy="24.5" r="24.5" fill="white"/>
<path d="M20.5836 6.875H24.5003V9.46375C25.7461 9.38788 26.9536 9.46042 28.0386 9.68947C23.4361 11.501 21.3186 16.1563 20.9719 16.9187L20.9505 16.9654C19.8258 16.7946 18.6074 16.6527 17.4544 16.6632C16.2663 16.7645 15.1135 16.94 13.215 18.0094C12.9473 18.1986 12.5864 18.5089 12.0959 18.982C12.0603 18.9563 12.0221 18.9326 11.9721 18.9013C11.9322 18.8764 11.8845 18.8467 11.8246 18.8075C11.5535 18.6304 11.1576 18.3907 10.6748 18.1513C9.68043 17.6579 8.46059 17.2371 7.26514 17.2371V13.4396C9.33221 13.4396 11.1907 14.1414 12.4589 14.7706C12.8988 14.9889 13.2849 15.207 13.6044 15.4009C13.8871 14.7975 14.2601 14.2364 14.706 13.719L12.5551 10.3439L16.0028 8.10501L17.9871 11.2189C18.8043 10.7974 19.6808 10.4477 20.5836 10.1729V6.875Z" fill="#3D8D7A"/>
<path d="M31.1159 15.3849C29.6886 16.0465 28.4531 17.1341 27.3392 19.2275C27.3392 19.2275 24.8679 18.0974 22.8629 17.51C24.4017 14.3903 26.1923 12.6351 28.8328 11.4111C31.387 10.2272 34.4342 9.924 38.0541 10.0491L37.8827 14.7084C34.5427 14.5929 32.6294 14.6833 31.1159 15.3849Z" fill="#3D8D7A"/>
<path d="M14.0043 19.8191C6.89297 26.1622 17.052 42.0198 25.1794 42.0198C33.3066 42.0198 44.4977 26.1763 36.3544 18.913C36.1665 18.7454 36.002 18.5946 35.8492 18.4546C35.1762 17.8374 34.7282 17.4267 33.4862 16.6882C30.9871 16.6882 29.481 19.1881 28.7954 20.7111C28.7606 20.7885 28.7176 20.8607 28.6678 20.9268L27.0873 25.3239L26.5177 27.3686C26.4576 27.5845 26.4732 27.8144 26.5622 28.0201L27.2275 29.5576L30.6722 29.1578L30.898 31.103L27.6582 31.4791L27.8687 34.5653L25.915 34.6985L25.6523 30.8486L24.765 28.7978C24.498 28.1807 24.4508 27.4907 24.6311 26.8431L24.6482 26.782L22.6565 27.6826L21.3543 30.9744L19.5333 30.254L20.5647 27.6471L17.421 26.9064L17.8701 25.0003L21.7921 25.9243L25.3725 24.3051L26.5764 20.9558C23.4744 19.4984 17.1043 17.054 14.0043 19.8191Z" fill="#3D8D7A"/>
</svg>
