<svg width="49" height="49" viewBox="0 0 49 49" fill="none" xmlns="http://www.w3.org/2000/svg">
<circle cx="24.5" cy="24.5" r="24.5" fill="white"/>
<path fill-rule="evenodd" clip-rule="evenodd" d="M8.41605 23.2638C10.2167 21.2254 12.9495 18.8902 16.4575 17.3008C14.6192 19.3393 13.5 22.0389 13.5 25C13.5 27.9611 14.6192 30.6607 16.4575 32.6992C12.9495 31.1098 10.2167 28.7746 8.41605 26.7362C7.52803 25.731 7.52803 24.269 8.41605 23.2638ZM6.97959 21.9949C10.2455 18.2977 16.453 13.5888 24.8293 13.5012C24.8861 13.5004 24.943 13.5 25 13.5H25.0279H25.0668C33.5633 13.5 39.8573 18.2629 43.154 21.9949C44.6823 23.7249 44.6823 26.2751 43.154 28.0051C39.8573 31.7371 33.5633 36.5 25.0668 36.5H25.0279H25C24.943 36.5 24.8861 36.4996 24.8293 36.4988C16.453 36.4112 10.2455 31.7023 6.9796 28.0051C5.45131 26.2751 5.4513 23.7249 6.97959 21.9949ZM25.0273 15.4167C24.9691 15.4169 24.911 15.4171 24.853 15.4178C19.6281 15.4963 15.4167 19.7564 15.4167 25C15.4167 30.2436 19.6281 34.5037 24.853 34.5822C24.911 34.5829 24.9691 34.5831 25.0273 34.5833C30.3075 34.5687 34.5834 30.2837 34.5834 25C34.5834 19.7163 30.3075 15.4313 25.0273 15.4167ZM36.5 25C36.5 28.01 35.3436 30.7499 33.4508 32.7997C37.0672 31.2094 39.8786 28.818 41.7175 26.7362C42.6056 25.731 42.6056 24.269 41.7175 23.2638C39.8786 21.182 37.0672 18.7906 33.4508 17.2003C35.3436 19.2501 36.5 21.99 36.5 25ZM25.0667 30.75C28.2424 30.75 30.8167 28.1756 30.8167 25C30.8167 24.1123 30.6156 23.2716 30.2564 22.521C29.9095 22.8684 29.4299 23.0833 28.9002 23.0833C27.8416 23.0833 26.9835 22.2252 26.9835 21.1667C26.9835 20.6369 27.1985 20.1574 27.5459 19.8104C26.7952 19.4512 25.9544 19.25 25.0667 19.25C21.8911 19.25 19.3167 21.8244 19.3167 25C19.3167 28.1756 21.8911 30.75 25.0667 30.75Z" fill="#3D8D7A"/>
</svg>
