<svg width="61" height="52" viewBox="0 0 61 52" fill="none" xmlns="http://www.w3.org/2000/svg">
<path d="M4.875 17.9311C4.875 8.62729 11.069 0 19.5507 0C25.4366 0 29.8041 3.87075 32.5 9.36179C35.1957 3.87107 39.5632 0 45.4493 0C53.932 0 60.125 8.62875 60.125 17.9311C60.125 37.8443 32.5 52 32.5 52C32.5 52 13.8916 43.0417 7.22004 28.3472H23.7003L26.3198 23.6905L29.3795 34.4L36.5448 25.1875H45.5V21.9375H34.9552L30.7455 27.35L27.3052 15.3095L21.7997 25.0972H5.97974C6.32421 26.2093 6.74148 27.293 7.22004 28.3472L0 28.347V25.097L5.97974 25.0972C5.27545 22.8236 4.875 20.4313 4.875 17.9311Z" fill="#3D8D7A"/>
</svg>
