<svg width="45" height="45" viewBox="0 0 45 45" fill="none" xmlns="http://www.w3.org/2000/svg">
<path fill-rule="evenodd" clip-rule="evenodd" d="M34.9353 24.3326L34.78 24.0015C34.1103 22.5733 33.9146 21.0601 33.8552 19.7177C33.8253 19.0412 33.8292 18.3726 33.8359 17.7579C33.8367 17.6734 33.8377 17.5902 33.8387 17.5081C33.8448 16.9777 33.8503 16.4959 33.8395 16.0319C33.7936 14.2041 33.2183 12.4244 32.1777 10.9009C30.9926 9.43031 29.4442 8.27427 27.6744 7.5445L27.6437 7.5318L27.6133 7.51803C25.2178 6.42918 22.607 5.867 19.9644 5.87211H19.9624C16.6369 5.87484 13.4555 7.17434 11.1165 9.47391C8.77855 11.7723 7.47318 14.8805 7.47583 18.1127C7.4774 20.0292 8.03508 22.2147 9.00398 24.2366C9.97508 26.2633 11.2908 27.9832 12.6759 29.0488L13.4069 29.6111L13.4137 37.9694C13.7186 38.3463 14.3106 38.8115 15.1984 39.2147C16.2848 39.7081 17.3766 39.9075 18.0085 39.8554L18.0846 39.8491L18.161 39.849C19.9951 39.8475 20.8529 39.3286 21.222 39.013C21.3558 38.8987 21.4488 38.791 21.5111 38.7063L21.5069 33.5168L23.8483 34.12L23.8494 34.1203L23.8504 34.1205L23.8516 34.1209L23.8629 34.1236C23.8775 34.1272 23.9025 34.1332 23.9372 34.1412C24.0067 34.1573 24.115 34.1813 24.2564 34.2095C24.5399 34.2661 24.9523 34.339 25.4495 34.4C26.459 34.5237 27.7465 34.5888 28.9897 34.4054C30.2435 34.2204 31.2883 33.8079 32.0064 33.1196C32.6752 32.4786 33.2636 31.4052 33.262 29.44L33.2607 27.837L34.8368 27.5876L34.838 27.5874L34.8456 27.5861C34.8513 27.5852 34.8593 27.5837 34.8696 27.5817C34.88 27.5798 34.8925 27.5774 34.9071 27.5745C34.9664 27.5628 35.0583 27.5434 35.1721 27.515C35.4054 27.4568 35.7035 27.3681 35.994 27.2453C36.2956 27.1178 36.5126 26.9854 36.6405 26.8725C36.6663 26.8498 36.6844 26.8316 36.6967 26.818C36.6921 26.7677 36.6746 26.6646 36.609 26.4978C36.5063 26.237 36.3311 25.9356 36.1068 25.6239C35.8875 25.3192 35.6542 25.0503 35.4726 24.8554C35.3832 24.7594 35.3097 24.6849 35.2611 24.637C35.2489 24.6248 35.2383 24.6144 35.2295 24.6059C35.221 24.5977 35.2143 24.5912 35.2093 24.5865L35.2016 24.5792L35.2006 24.5783L34.9353 24.3326ZM23.3839 35.9365C23.3839 35.9365 24.1357 36.1302 25.2591 36.2656C28.5788 36.6657 35.1428 36.5571 35.137 29.4384C35.137 29.4384 38.233 28.9487 38.5451 27.1788C38.8573 25.409 36.4776 23.2054 36.4776 23.2054C35.6676 21.4781 35.6913 19.4434 35.7135 17.5332C35.7197 17.0051 35.7257 16.4865 35.714 15.9866C35.6586 13.7699 34.9537 11.6157 33.6838 9.78188C32.2933 8.03635 30.4705 6.66932 28.3892 5.81109C25.748 4.6106 22.8714 3.99148 19.9608 3.99711C16.1493 4.00023 12.495 5.48933 9.80202 8.1368C7.10896 10.7843 5.59777 14.3733 5.60083 18.1143C5.60452 22.6151 8.18588 27.9603 11.5326 30.5349L11.5391 38.4981C12.4898 40.4878 16.0711 41.8965 18.1625 41.724C22.6047 41.7204 23.3865 39.1552 23.3865 39.1552L23.3839 35.9365Z" fill="#3D8D7A"/>
<path fill-rule="evenodd" clip-rule="evenodd" d="M25.0296 19.2128C25.4884 19.2124 25.5645 19.1271 25.7105 18.9635C25.795 18.8687 25.903 18.7476 26.1225 18.6016C26.7304 18.998 27.4476 19.2055 28.1795 19.1966L30.5032 18.3715C31.1577 17.8456 31.6068 17.1167 31.7752 16.307C31.9436 15.4974 31.8212 14.656 31.4283 13.9237C31.0355 13.1915 30.3961 12.6127 29.6171 12.2844C29.4387 11.5008 28.9903 10.8001 28.3463 10.2988L26.0767 9.52786L25.8213 9.52805C25.316 8.81189 24.5579 8.30133 23.6911 8.0935L19.7638 7.83057C18.9552 7.89661 18.193 8.22545 17.5998 8.76417C17.3193 8.70003 17.0321 8.66691 16.7439 8.66543C16.0462 8.66739 15.3638 8.86587 14.7793 9.23689C14.1949 9.60793 13.7332 10.1356 13.4502 10.7564L11.6029 12.032C11.1435 12.6389 10.8965 13.3732 10.8983 14.127C10.894 14.4421 10.9373 14.7561 11.0268 15.059C10.5424 15.6719 10.2822 16.4245 10.2877 17.1976C10.2873 18.0943 10.64 18.9569 11.2732 19.6081C11.3248 20.2501 11.5558 20.866 11.9412 21.3893C12.3266 21.9126 12.8518 22.3233 13.4599 22.5771C14.1606 23.0039 14.7541 23.578 15.1968 24.2574C15.6395 24.9368 15.8226 25.7041 15.9202 26.503L19.7791 26.4998L19.776 22.7708C19.7746 22.1087 19.9639 21.4595 20.3224 20.8967C20.3767 20.8114 20.4276 20.7286 20.4767 20.6484V20.6483C20.7513 20.2001 20.9743 19.8361 21.4917 19.5874C22.0634 19.374 22.5783 19.0379 22.9981 18.6042C23.597 19.0013 24.3049 19.2135 25.0296 19.2128ZM13.1017 19.0861L20.6007 17.9116L15.7331 12.5214L13.1017 19.0861ZM21.0653 14.7022L23.2855 10.5769L27.4885 12.7558L25.2684 16.8811L21.0653 14.7022Z" fill="#3D8D7A"/>
<path d="M31.8544 22.3519C31.855 23.1286 31.226 23.7587 30.4493 23.7594C29.6726 23.76 29.0425 23.1309 29.0419 22.3543C29.0413 21.5776 29.6704 20.9475 30.447 20.9469C31.2236 20.9462 31.8538 21.5753 31.8544 22.3519Z" fill="#3D8D7A"/>
<path fill-rule="evenodd" clip-rule="evenodd" d="M19.6734 30.3307L15.9234 30.3338L15.9219 28.4588L19.6719 28.4557L19.6734 30.3307Z" fill="#3D8D7A"/>
<path fill-rule="evenodd" clip-rule="evenodd" d="M19.6764 34.0807L15.9264 34.0838L15.9249 32.2088L19.6749 32.2057L19.6764 34.0807Z" fill="#3D8D7A"/>
<path fill-rule="evenodd" clip-rule="evenodd" d="M19.6794 37.8307L15.9294 37.8338L15.9279 35.9588L19.6779 35.9557L19.6794 37.8307Z" fill="#3D8D7A"/>
</svg>
