<svg width="49" height="49" viewBox="0 0 49 49" fill="none" xmlns="http://www.w3.org/2000/svg">
<circle cx="24.5" cy="24.5" r="24.5" fill="white"/>
<path fill-rule="evenodd" clip-rule="evenodd" d="M18.9296 17.5617C19.9128 18.6336 21.574 19.0933 24.6183 19.1585C24.7919 16.8593 25.6775 15.0481 26.9881 13.7768C28.4449 12.3637 30.3769 11.6667 32.2936 11.6667C34.2102 11.6667 36.1422 12.3637 37.599 13.7768C39.0657 15.1994 40 17.298 40 20V29.1667C40 31.7352 39.5722 34.4177 38.2779 36.484C36.9459 38.6105 34.7459 40 31.4527 40C28.0852 40 25.7404 38.0016 23.5965 36.1517L23.5032 36.0712C21.3442 34.2081 19.3327 32.4721 16.4724 32.0835C15.0698 32.0942 14.1257 32.5227 13.4665 33.1095C12.7829 33.7179 12.342 34.5542 12.0667 35.4525C11.7921 36.3489 11.697 37.2602 11.6733 37.9581C11.6615 38.3043 11.6674 38.5917 11.6761 38.7901C11.6804 38.8891 11.6854 38.9655 11.6892 39.0155C11.691 39.0405 11.6926 39.0588 11.6936 39.0701L11.6947 39.0816L11.6947 39.0826C11.6947 39.0826 11.6947 39.082 10.8657 39.1667C10.0366 39.2513 10.0366 39.2506 10.0366 39.2506L10.0365 39.2497L10.0362 39.2472L10.0356 39.2402L10.0335 39.2178C10.0318 39.1991 10.0296 39.173 10.0272 39.14C10.0222 39.0741 10.0162 38.9804 10.011 38.8629C10.0008 38.6283 9.99408 38.2973 10.0076 37.9013C10.0343 37.1148 10.1415 36.0469 10.4732 34.9642C10.8044 33.8832 11.3743 32.7404 12.3584 31.8645C13.3586 30.9742 14.7236 30.4167 16.5258 30.4167C16.945 30.4167 17.3399 30.4262 17.7193 30.4353C18.4243 30.4523 19.0758 30.468 19.7296 30.419C20.6917 30.3469 21.4853 30.1372 22.1411 29.6457C23.3962 28.7049 24.4842 26.4589 24.5802 20.8251C21.4811 20.7609 19.1799 20.3001 17.7014 18.6883C16.8984 17.8129 16.4027 16.6674 16.1037 15.2502C15.8057 13.8381 15.6925 12.1042 15.6925 10H17.3592C17.3592 12.0625 17.4719 13.6619 17.7344 14.9061C17.9958 16.1451 18.3948 16.9788 18.9296 17.5617ZM38.3333 26.8672V20C38.3333 17.702 37.5494 16.0506 36.4386 14.9732C35.3181 13.8863 33.8135 13.3333 32.2936 13.3333C30.7737 13.3333 29.2691 13.8863 28.1485 14.9732C27.0378 16.0506 26.2538 17.702 26.2538 20C26.2538 22.3074 26.1052 24.2001 25.8164 25.7461C28.5982 24.2423 30.7073 25.3132 32.6934 26.3217C34.5333 27.2559 36.2675 28.1365 38.3333 26.8672Z" fill="#3D8D7A"/>
</svg>
