<svg width="90" height="90" viewBox="0 0 90 90" fill="none" xmlns="http://www.w3.org/2000/svg">
<path d="M31.875 45C39.1266 45 45 39.1266 45 31.875C45 24.6234 39.1266 18.75 31.875 18.75C24.6234 18.75 18.75 24.6234 18.75 31.875C18.75 39.1266 24.6234 45 31.875 45Z" fill="white"/>
<path d="M73.125 38.4375C73.125 44.1351 68.5101 48.75 62.8125 48.75C57.1149 48.75 52.5 44.1351 52.5 38.4375C52.5 32.7397 57.1149 28.125 62.8125 28.125C68.5101 28.125 73.125 32.7397 73.125 38.4375Z" fill="white"/>
<path d="M31.875 48.75C37.0005 48.75 45.3431 50.3458 50.8146 53.5223C53.0494 55.7972 54.375 58.2776 54.375 60.75V71.25H7.5V60.75C7.5 52.77 23.7397 48.75 31.875 48.75Z" fill="white"/>
<path d="M82.5001 71.25H58.1251V60.75C58.1251 58.0944 57.1662 55.6502 55.6433 53.4686C58.5325 52.8234 61.3769 52.5 63.5489 52.5C70.5396 52.5 82.5001 55.8501 82.5001 62.4999V71.25Z" fill="white"/>
</svg>
