<svg width="49" height="49" viewBox="0 0 49 49" fill="none" xmlns="http://www.w3.org/2000/svg">
<circle cx="24.5" cy="24.5" r="24.5" fill="white"/>
<path d="M17.5081 13.2416C22.9926 13.2461 22.4878 20.7057 22.4854 23.6897C22.4823 27.4981 23.4173 35.1849 20.4793 38.1107C17.4854 41.0923 11.5012 42.5794 8.51176 40.0903C5.52232 37.6011 10.5281 13.2359 17.5081 13.2416Z" fill="#3D8D7A"/>
<path d="M31.5149 13.2531C26.0306 13.2486 26.5231 20.709 26.5207 23.693C26.5175 27.5015 25.57 35.1866 28.5031 38.1173C31.4922 41.1037 37.4739 42.6006 40.4674 40.1165C43.4609 37.6322 38.495 13.2588 31.5149 13.2531Z" fill="#3D8D7A"/>
<path fill-rule="evenodd" clip-rule="evenodd" d="M23.5789 7.62427C23.5789 7.62427 23.5789 7.62416 24.5164 7.62493C25.4539 7.6257 25.4539 7.62581 25.4539 7.62581L25.4428 21.2129C25.4412 23.1829 24.5633 24.312 23.5694 24.8908C23.1031 25.1624 22.6452 25.294 22.3094 25.359C22.1398 25.3919 21.9959 25.4088 21.8899 25.4175C21.8368 25.4219 21.7928 25.4242 21.7592 25.4256C21.7425 25.4262 21.7284 25.4266 21.7169 25.4268L21.7019 25.427H21.696H21.6924C21.6924 25.427 21.6913 25.427 21.692 24.4895C21.6928 23.552 21.6917 23.552 21.6917 23.552H21.6908L21.689 23.5521H21.6862H21.6832C21.6832 23.5521 21.6853 23.5521 21.6879 23.5519C21.6956 23.5516 21.712 23.5508 21.7357 23.5489C21.7835 23.5449 21.8592 23.5364 21.953 23.5182C22.1443 23.4812 22.3891 23.4084 22.6259 23.2705C23.0379 23.0306 23.5666 22.5211 23.5678 21.2114L23.5789 7.62427Z" fill="#3D8D7A"/>
<path fill-rule="evenodd" clip-rule="evenodd" d="M25.4539 7.62581C25.4539 7.62581 25.4539 7.6257 24.5164 7.62493C23.5789 7.62416 23.5789 7.62427 23.5789 7.62427L23.5678 21.2114C23.5662 23.1814 24.4421 24.3119 25.4351 24.8923C25.9009 25.1646 26.3586 25.297 26.6942 25.3625C26.8639 25.3957 27.0078 25.4129 27.1137 25.4218C27.1668 25.4262 27.2109 25.4286 27.2443 25.43C27.2611 25.4307 27.2753 25.4311 27.2866 25.4313L27.3016 25.4316H27.3075H27.3101H27.3112C27.3112 25.4316 27.3123 25.4316 27.3131 24.4941C27.3138 23.5566 27.3149 23.5566 27.3149 23.5566H27.3159H27.3177L27.3205 23.5566H27.3235C27.3235 23.5566 27.3225 23.5566 27.3187 23.5565C27.311 23.5562 27.2947 23.5553 27.271 23.5534C27.2232 23.5493 27.1475 23.5407 27.0538 23.5223C26.8625 23.485 26.6177 23.4118 26.3813 23.2736C25.9696 23.033 25.4416 22.5226 25.4428 21.2129L25.4539 7.62581Z" fill="#3D8D7A"/>
</svg>
