<svg width="45" height="45" viewBox="0 0 45 45" fill="none" xmlns="http://www.w3.org/2000/svg">
<path fill-rule="evenodd" clip-rule="evenodd" d="M27.7354 21.4412C28.8223 21.4412 29.884 21.1452 30.7817 20.592C31.6931 21.1442 32.7688 21.4337 33.8664 21.4222L37.3531 20.2768C38.3356 19.5457 39.01 18.532 39.2637 17.4057C39.5173 16.2793 39.3346 15.1085 38.7462 14.0891C38.1578 13.0698 37.1994 12.2637 36.0315 11.806C35.7648 10.7154 35.0931 9.74007 34.1277 9.04166L30.7242 7.96642H30.3411C29.584 6.96929 28.4475 6.25803 27.1476 5.96786L19.8507 5.59753C18.6378 5.68852 17.494 6.1452 16.6036 6.89411C16.1828 6.80456 15.7522 6.75814 15.3199 6.75574C14.2732 6.75768 13.2494 7.03307 12.3723 7.54867C11.4952 8.06426 10.8021 8.79802 10.3767 9.66141L7.6042 11.4343C6.91432 12.2781 6.54293 13.2997 6.54476 14.3484C6.53793 14.7869 6.60249 15.224 6.73636 15.6456C6.00897 16.4977 5.61783 17.5447 5.6251 18.6203C5.62337 19.868 6.15133 21.0687 7.10039 21.9757C7.17698 22.8688 7.52272 23.7262 8.1002 24.4547C8.67768 25.1833 9.4649 25.7555 10.3767 26.1093C11.4273 26.7038 12.3169 27.5034 12.98 28.4492C13.6432 29.395 14.063 30.463 14.2087 31.5746H16.7572V24.3154L14.2805 22.1139L12.6048 23.7897C12.2386 24.1558 11.6451 24.1558 11.2789 23.7897C10.9128 23.4236 10.9128 22.83 11.2789 22.4639L13.2326 20.5102L12.6372 17.2358L9.9885 15.9113C9.52537 15.6798 9.33767 15.1166 9.56925 14.6535C9.80081 14.1905 10.3639 14.0027 10.827 14.2343L13.4209 15.5312L16.6662 13.4661L15.6663 10.7997C15.4845 10.3149 15.7301 9.77457 16.2149 9.59269C16.6997 9.41091 17.2402 9.65653 17.4219 10.1413L18.4884 12.9853H19.7999L20.4085 11.7681L19.5176 9.68925C19.3137 9.21336 19.5341 8.66222 20.01 8.45826C20.486 8.25431 21.0371 8.47476 21.241 8.95066L22.0152 10.7571L25.1087 11.3195C25.126 11.3033 25.1441 11.2876 25.163 11.2726L27.0806 9.73847C27.485 9.41503 28.0749 9.48057 28.3984 9.88491C28.7218 10.2892 28.6562 10.8791 28.2519 11.2026L26.8722 12.3064L28.4933 14.3905L29.1289 13.1195C29.2877 12.8018 29.6123 12.6012 29.9674 12.6012H32.2686C32.7863 12.6012 33.2061 13.0209 33.2061 13.5387C33.2061 14.0565 32.7863 14.4762 32.2686 14.4762H30.5468L30.1537 15.2624L32.0884 15.6923C32.1632 15.7089 32.2357 15.7346 32.3043 15.7689L33.8383 16.536C34.3014 16.7676 34.4891 17.3306 34.2577 17.7938C34.0261 18.2569 33.4629 18.4446 32.9998 18.213L31.569 17.4976L28.2299 16.7556C28.017 16.7082 27.8272 16.5881 27.6933 16.416L25.2285 13.247L22.1692 12.6908C22.1113 12.7447 22.0459 12.7918 21.9736 12.8305L21.3168 14.1442V14.9023H22.6805C22.8261 14.9023 22.9696 14.9363 23.0997 15.0013L26.168 16.5354C26.631 16.767 26.8188 17.3301 26.5872 17.7932C26.3557 18.2563 25.7925 18.444 25.3294 18.2124L22.4591 16.7773H21.3168V18.5251C21.3168 19.0429 20.8971 19.4626 20.3793 19.4626C19.8615 19.4626 19.4418 19.0429 19.4418 18.5251V14.8603H17.9677L14.511 17.06L15.1074 20.3404L18.3175 23.1937C18.5176 23.3716 18.6322 23.6266 18.6322 23.8943V31.5746H21.367V26.3859C21.3657 25.4648 21.6504 24.5616 22.1889 23.7789C22.7273 22.9964 23.498 22.3657 24.4134 21.9583C24.9282 21.7806 25.0549 21.5412 25.21 21.248C25.3134 21.0525 25.4296 20.8331 25.6816 20.592C25.9006 20.7269 26.0702 20.8466 26.2174 20.9503C26.6736 21.272 26.9135 21.4412 27.7354 21.4412Z" fill="#3D8D7A"/>
<path fill-rule="evenodd" clip-rule="evenodd" d="M21.5625 35.6251H14.0625V33.7501H21.5625V35.6251Z" fill="#3D8D7A"/>
<path fill-rule="evenodd" clip-rule="evenodd" d="M21.5625 39.3751H14.0625V37.5001H21.5625V39.3751Z" fill="#3D8D7A"/>
</svg>
