<svg width="49" height="49" viewBox="0 0 49 49" fill="none" xmlns="http://www.w3.org/2000/svg">
<circle cx="24.5" cy="24.5" r="24.5" fill="white"/>
<path fill-rule="evenodd" clip-rule="evenodd" d="M8.375 11.0625C8.375 9.57824 9.57824 8.375 11.0625 8.375H37.9375C39.4218 8.375 40.625 9.57824 40.625 11.0625V37.9375C40.625 39.4218 39.4218 40.625 37.9375 40.625H32.5625V33.5167C32.5625 31.7922 33.4565 30.2267 34.5854 28.9229C35.4785 27.8913 36.1721 26.7135 36.5749 25.4529C37.246 23.3527 37.1923 21.1107 36.4212 19.0403C35.6502 16.9697 34.2003 15.1742 32.2742 13.9044C30.3482 12.6348 28.0422 11.9544 25.6785 11.9583C23.2359 11.9758 20.8631 12.7154 18.9057 14.0695C16.9482 15.4234 15.5083 17.3211 14.7958 19.4862C14.5658 20.291 14.3103 22.6583 14.3103 22.6583C13.9017 23.6762 13.4674 24.6704 13.0331 25.6647L12.42 27.1087C12.1912 27.4998 12.0356 27.924 11.9601 28.3633C11.9435 28.6551 12.0439 28.9421 12.242 29.1694C12.44 29.3966 12.7219 29.5479 13.0331 29.5942C13.1353 29.5942 15.5417 29.875 15.5417 29.875V32.5625C15.5417 33.4583 16.0792 35.25 18.2292 35.25H20.0208V40.625H11.0625C9.57824 40.625 8.375 39.4218 8.375 37.9375V11.0625ZM14.6458 28.8896C14.6458 27.0979 17.3333 23.6042 21.3646 23.6042C22.8975 23.6042 23.8881 24.3025 24.6692 24.8532C25.1779 25.2118 25.5978 25.5078 26.0209 25.5078C26.8459 25.5078 27.507 25.2504 28.0068 24.932C28.5225 24.6035 29.295 24.6838 29.5684 25.2307C29.7465 25.5867 29.647 26.0192 29.3276 26.2566C29.2772 26.2942 29.2274 26.3312 29.1784 26.3675C27.6431 27.5072 26.8125 28.1237 26.8125 30.4573V40.625H24.5V34.8021C24.5 33.1654 23.5426 31.6516 21.9476 31.285C20.2775 30.901 18.1044 30.7142 16.4376 31.6667V29.875C18.8426 28.6724 21.6514 29.0842 23.2384 29.485C23.8528 29.6402 24.4686 29.1603 24.138 28.6197C23.4478 27.4912 21.8487 26.7396 20.0208 26.7396C16.8542 26.7396 15.5417 28.9792 15.5417 28.9792L14.6458 28.8896Z" fill="#3D8D7A"/>
<path fill-rule="evenodd" clip-rule="evenodd" d="M28.7457 23.3115C28.7435 23.3139 28.7412 23.3164 28.7389 23.3188C28.7383 23.3195 28.7389 23.3189 28.7389 23.3188C28.7392 23.3185 28.7398 23.3178 28.7402 23.3175L28.7427 23.3148L28.7443 23.313L28.7457 23.3115ZM28.0833 22.7083C27.4205 22.1057 27.4207 22.1054 27.421 22.1051L27.4227 22.1032L27.4253 22.1005L27.4313 22.094L27.4473 22.0771C27.4597 22.0643 27.4755 22.0482 27.4949 22.0293C27.5334 21.9915 27.5859 21.9426 27.652 21.8863C27.7839 21.774 27.9726 21.6302 28.2154 21.4877C28.7016 21.2025 29.4166 20.9166 30.3229 20.9166C31.9548 20.9166 33.4583 22.2701 33.4583 24.5448C33.4583 26.4555 32.6019 27.7997 31.6221 28.6484C31.1389 29.0669 30.626 29.3662 30.1671 29.563C29.7293 29.7508 29.2714 29.875 28.8977 29.875C28.403 29.875 28.0019 29.4739 28.0019 28.9791C28.0019 28.4844 28.403 28.0833 28.8977 28.0833C28.8975 28.0833 28.8975 28.0833 28.8977 28.0833C28.8996 28.0832 28.9141 28.0827 28.9428 28.0785C28.9746 28.0738 29.0171 28.0656 29.0697 28.0523C29.1755 28.0256 29.3089 27.9816 29.4608 27.9165C29.7654 27.7858 30.1177 27.5812 30.449 27.2942C31.0979 26.732 31.6667 25.859 31.6667 24.5448C31.6667 23.1465 30.8559 22.7083 30.3229 22.7083C29.8041 22.7083 29.3993 22.8703 29.122 23.033C28.983 23.1146 28.879 23.1946 28.8137 23.2504C28.7812 23.278 28.759 23.299 28.7474 23.3103L28.7389 23.3188C28.4052 23.6773 27.8442 23.7016 27.4807 23.3711C27.1147 23.0383 27.0882 22.4712 27.421 22.1051L28.0833 22.7083Z" fill="#3D8D7A"/>
</svg>
